<svg width="62" height="62" viewBox="0 0 62 62" fill="none" xmlns="http://www.w3.org/2000/svg">
<path d="M49.5 12.5981C48.6716 11.1632 49.1632 9.32844 50.5981 8.50001C52.033 7.67159 53.8677 8.16321 54.6962 9.59809C55.5246 11.033 55.033 12.8677 53.5981 13.6962C52.1632 14.5246 50.3284 14.033 49.5 12.5981Z" fill="black"/>
<path d="M31 0H34V6H31C25.4057 5.99504 19.9731 7.87636 15.58 11.34L26.38 22.14C28.4984 21.0347 30.9424 20.7245 33.2697 21.2654C35.597 21.8064 37.6537 23.1627 39.0675 25.0889C40.4812 27.0151 41.1585 29.3839 40.9768 31.7663C40.7951 34.1487 39.7664 36.3873 38.0769 38.0769C36.3873 39.7664 34.1487 40.7951 31.7663 40.9768C29.3839 41.1585 27.0151 40.4812 25.0889 39.0675C23.1627 37.6537 21.8064 35.597 21.2654 33.2697C20.7245 30.9424 21.0348 28.4983 22.14 26.38L11.34 15.58C8.87788 18.7145 7.2009 22.3922 6.44894 26.3065C5.69699 30.2208 5.89185 34.2582 7.01729 38.0819C8.14272 41.9055 10.1661 45.4047 12.9187 48.2875C15.6712 51.1703 19.0732 53.3531 22.8408 54.654C26.6084 55.9549 30.6324 56.336 34.5773 55.7657C38.5221 55.1953 42.2734 53.69 45.5183 51.3753C48.7632 49.0606 51.4076 46.0036 53.2309 42.4592C55.0542 38.9148 56.0037 34.9859 56 31V28H62V31C62 37.1312 60.1819 43.1248 56.7756 48.2227C53.3693 53.3206 48.5277 57.2939 42.8632 59.6403C37.1987 61.9866 30.9656 62.6005 24.9522 61.4043C18.9388 60.2082 13.4151 57.2557 9.0797 52.9203C4.74428 48.5849 1.79181 43.0612 0.595673 37.0478C-0.600469 31.0344 0.0134323 24.8013 2.35975 19.1368C4.70607 13.4723 8.67941 8.63077 13.7773 5.22444C18.8753 1.81812 24.8688 0 31 0ZM31 35C31.7911 35 32.5645 34.7654 33.2223 34.3259C33.8801 33.8864 34.3928 33.2616 34.6955 32.5307C34.9983 31.7998 35.0775 30.9956 34.9232 30.2196C34.7688 29.4437 34.3879 28.731 33.8284 28.1716C33.269 27.6122 32.5563 27.2312 31.7804 27.0769C31.0045 26.9225 30.2002 27.0017 29.4693 27.3045C28.7384 27.6072 28.1137 28.1199 27.6741 28.7777C27.2346 29.4355 27 30.2089 27 31C27 32.0609 27.4214 33.0783 28.1716 33.8284C28.9217 34.5786 29.9391 35 31 35Z" fill="black"/>
<path d="M40.5 6.59809C39.6716 5.16321 40.1632 3.32844 41.5981 2.50001C43.033 1.67159 44.8677 2.16321 45.6962 3.59809C46.5246 5.03297 46.033 6.86774 44.5981 7.69617C43.1632 8.52459 41.3284 8.03297 40.5 6.59809Z" fill="black"/>
<path d="M54.5 22.5981C53.6716 21.1632 54.1632 19.3284 55.5981 18.5C57.033 17.6716 58.8677 18.1632 59.6962 19.5981C60.5246 21.033 60.033 22.8677 58.5981 23.6962C57.1632 24.5246 55.3284 24.033 54.5 22.5981Z" fill="black"/>
</svg>